<svg xmlns="http://www.w3.org/2000/svg" width="64" height="64" viewBox="0 0 64 64" fill="none">
  <defs>
    <linearGradient id="badge" x1="6" y1="4" x2="58" y2="60" gradientUnits="userSpaceOnUse">
      <stop offset="0" stop-color="#5b8bff"/>
      <stop offset="1" stop-color="#27c79a"/>
    </linearGradient>
    <linearGradient id="sheen" x1="32" y1="3" x2="32" y2="40" gradientUnits="userSpaceOnUse">
      <stop offset="0" stop-color="#ffffff" stop-opacity="0.30"/>
      <stop offset="1" stop-color="#ffffff" stop-opacity="0"/>
    </linearGradient>
    <linearGradient id="lens" x1="21" y1="14" x2="39" y2="50" gradientUnits="userSpaceOnUse">
      <stop offset="0" stop-color="#ffffff" stop-opacity="0.95"/>
      <stop offset="1" stop-color="#c4ecff" stop-opacity="0.82"/>
    </linearGradient>
    <filter id="glow" x="-60%" y="-60%" width="220%" height="220%">
      <feGaussianBlur stdDeviation="2.6"/>
    </filter>
  </defs>
  <rect x="3" y="3" width="58" height="58" rx="17" fill="url(#badge)"/>
  <rect x="3" y="3" width="58" height="58" rx="17" fill="url(#sheen)"/>
  <g stroke="#ffffff" stroke-opacity="0.9" stroke-width="2.2" stroke-linecap="round">
    <line x1="9" y1="20" x2="30" y2="20"/>
    <line x1="9" y1="32" x2="30" y2="32"/>
    <line x1="9" y1="44" x2="30" y2="44"/>
  </g>
  <g stroke="#ffe08a" stroke-width="2.2" stroke-linecap="round">
    <line x1="30" y1="20" x2="49" y2="32"/>
    <line x1="30" y1="32" x2="49" y2="32"/>
    <line x1="30" y1="44" x2="49" y2="32"/>
  </g>
  <path d="M30 14 C 39 23 39 41 30 50 C 21 41 21 23 30 14 Z" fill="url(#lens)" stroke="#eaf6ff" stroke-opacity="0.9" stroke-width="1.5"/>
  <circle cx="50" cy="32" r="5.5" fill="#ffd45e" opacity="0.8" filter="url(#glow)"/>
  <circle cx="50" cy="32" r="3" fill="#fff3cb"/>
</svg>
